<?xml version="1.0" standalone="no"?>
<!DOCTYPE svg PUBLIC "-//W3C//DTD SVG 20010904//EN"
 "http://www.w3.org/TR/2001/REC-SVG-20010904/DTD/svg10.dtd">
<svg version="1.0" xmlns="http://www.w3.org/2000/svg"
 width="1024.000000pt" height="1024.000000pt" viewBox="0 0 1024.000000 1024.000000"
 preserveAspectRatio="xMidYMid meet">
<metadata>
Created by potrace 1.14, written by Peter Selinger 2001-2017
</metadata>
<g transform="translate(0.000000,1024.000000) scale(0.100000,-0.100000)"
fill="#000000" stroke="none">
<path d="M0 5125 l0 -5115 5120 0 5120 0 0 5115 0 5115 -5120 0 -5120 0 0
-5115z m8067 1863 c-3 -7 -5 -2 -5 12 0 14 2 19 5 13 2 -7 2 -19 0 -25z
m-3229 -700 c-2 -6 -10 -14 -16 -16 -7 -2 -10 2 -6 12 7 18 28 22 22 4z m-418
-147 c0 -29 -4 -39 -15 -37 -8 1 -17 5 -20 8 -7 6 21 68 30 68 3 0 5 -18 5
-39z m306 11 c-6 -18 10 -31 57 -46 16 -5 18 -2 12 24 -5 23 -3 30 9 30 13 0
16 -12 16 -60 0 -57 -1 -60 -19 -50 -11 5 -37 10 -58 10 -27 0 -42 6 -50 20
-13 19 -8 50 7 50 4 0 10 9 13 20 3 11 8 20 12 20 3 0 4 -8 1 -18z m49 9 c3
-5 1 -12 -5 -16 -5 -3 -10 1 -10 9 0 18 6 21 15 7z m1515 -25 c0 -29 -15 -42
-24 -21 -3 8 -16 15 -28 15 -23 0 -23 0 2 14 37 21 50 19 50 -8z m-100 -10 c0
-3 -4 -8 -10 -11 -5 -3 -10 -1 -10 4 0 6 5 11 10 11 6 0 10 -2 10 -4z m-1214
-51 c-9 -7 -16 -17 -16 -24 0 -6 -6 -11 -14 -11 -12 0 -12 4 0 30 10 20 20 27
31 23 14 -6 14 -7 -1 -18z m1100 16 c5 -5 18 -11 29 -14 11 -3 1 -5 -23 -6
-27 -1 -41 3 -37 9 3 6 -3 10 -15 10 -19 0 -20 -2 -6 -15 8 -8 21 -15 28 -15
10 0 11 -2 0 -8 -7 -5 -23 -7 -35 -6 -12 1 -25 3 -29 3 -5 1 -8 7 -8 15 0 8
-6 14 -12 13 -7 0 -22 1 -33 3 -15 2 -13 4 10 10 43 11 119 12 131 1z m-653
-18 c-7 -2 -21 -2 -30 0 -10 3 -4 5 12 5 17 0 24 -2 18 -5z m-1213 -80 c0 -23
-5 -33 -15 -33 -17 0 -18 12 -9 60 8 39 24 21 24 -27z m180 32 c11 7 9 10 -6
16 -16 7 -15 8 7 8 24 1 27 -3 32 -46 3 -27 8 -57 12 -69 6 -20 4 -20 -57 -10
-35 5 -64 10 -66 11 -1 1 2 14 7 28 9 23 14 25 53 20 40 -4 42 -3 24 11 -10 8
-22 13 -26 11 -5 -3 -11 2 -14 11 -11 28 -6 38 7 19 9 -11 19 -15 27 -10z
m720 15 c0 -5 -7 -10 -16 -10 -8 0 -12 5 -9 10 3 6 10 10 16 10 5 0 9 -4 9
-10z m167 4 c-3 -3 -12 -4 -19 -1 -8 3 -5 6 6 6 11 1 17 -2 13 -5z m578 -12
c-3 -3 -11 0 -18 7 -9 10 -8 11 6 5 10 -3 15 -9 12 -12z m-111 -1 c3 -5 -9
-16 -26 -24 -22 -11 -35 -12 -39 -5 -4 6 -16 7 -30 3 -21 -7 -22 -6 -7 8 8 9
30 17 49 20 19 2 37 5 41 5 4 1 9 -2 12 -7z m71 -12 c10 -15 -1 -23 -20 -15
-9 3 -13 10 -10 16 8 13 22 13 30 -1z m465 -2 c0 -22 -60 -36 -440 -102 -52
-9 -129 -22 -170 -30 -41 -7 -100 -16 -130 -20 -30 -3 -80 -10 -110 -15 -166
-28 -287 -42 -329 -37 -25 4 -113 16 -196 28 -82 11 -175 24 -205 29 -67 9
-120 20 -120 25 0 2 5 15 12 29 9 20 14 23 25 15 7 -6 13 -9 13 -6 0 2 33 -2
73 -9 90 -17 97 -17 97 1 0 8 -4 15 -10 15 -22 0 -8 25 15 26 15 1 25 -3 25
-12 0 -8 -4 -14 -10 -14 -18 0 -10 -18 16 -35 20 -13 32 -15 49 -7 12 6 26 7
31 2 13 -12 88 -19 252 -26 113 -5 179 -1 315 16 209 26 587 93 727 129 52 13
70 13 70 -2z m-1625 -57 c3 -5 1 -10 -4 -10 -6 0 -11 5 -11 10 0 6 2 10 4 10
3 0 8 -4 11 -10z m800 0 c8 -13 -5 -13 -25 0 -13 8 -13 10 2 10 9 0 20 -4 23
-10z m-50 -10 c-3 -5 -12 -7 -20 -3 -21 7 -19 13 6 13 11 0 18 -4 14 -10z
m-138 -26 c-3 -3 -12 -4 -19 -1 -8 3 -5 6 6 6 11 1 17 -2 13 -5z m-1067 -504
c0 -16 7 -20 33 -20 18 0 37 4 43 10 5 5 15 5 23 1 10 -7 11 -13 2 -27 -6 -11
-11 -14 -11 -6 0 21 -64 11 -68 -11 -4 -22 73 -101 119 -121 l34 -15 -44 -1
c-49 0 -113 16 -153 40 -25 15 -98 112 -98 130 0 11 65 35 108 39 6 0 12 -8
12 -19z m1970 0 c36 -9 35 -28 -7 -89 -38 -53 -51 -61 -148 -92 -16 -5 -48 -9
-70 -9 l-40 1 40 21 c52 26 115 87 115 110 0 10 -10 20 -25 24 -35 9 -31 25 4
18 23 -5 32 -2 42 15 14 21 15 21 89 1z m-495 -144 c47 -35 46 -38 -5 -38
-142 0 -159 2 -184 26 -15 13 -26 26 -26 30 0 12 55 69 84 87 l29 18 28 -43
c15 -24 48 -60 74 -80z m-892 64 c45 -48 46 -65 5 -84 -34 -15 -201 -30 -212
-19 -3 4 19 29 49 56 30 27 58 60 61 74 6 21 11 24 33 18 14 -3 43 -23 64 -45z
m462 -681 c-45 -15 -187 -15 -210 -2 -16 10 5 12 110 12 98 -1 123 -3 100 -10z
m5 -1194 l0 -65 -60 0 -60 0 0 65 0 65 60 0 60 0 0 -65z m-929 0 c41 -22 69
-71 69 -122 l0 -43 -65 0 c-63 0 -65 1 -65 25 l0 25 -192 -2 -193 -3 2 -45 c1
-25 2 -53 2 -62 1 -17 18 -18 215 -18 201 0 215 -1 240 -21 45 -35 56 -69 56
-172 0 -81 -3 -99 -23 -128 -38 -56 -50 -59 -300 -59 -194 0 -233 2 -257 16
-39 24 -60 65 -60 118 l0 46 65 0 c36 0 64 -3 64 -7 -7 -43 -9 -43 191 -43
l190 0 0 60 0 60 -201 0 c-224 0 -255 7 -290 64 -15 25 -19 51 -19 138 0 101
1 108 27 138 14 18 36 36 47 40 12 5 121 9 244 9 183 1 228 -2 253 -14z m929
-365 l0 -260 -60 0 -60 0 0 260 0 260 60 0 60 0 0 -260z m-269 211 l39 -39 0
-216 0 -216 -216 0 c-182 0 -220 3 -244 16 -50 30 -60 60 -60 188 l0 116 195
0 195 0 0 35 0 35 -195 0 -195 0 0 60 0 60 221 0 221 0 39 -39z m540 -23 c29
-35 58 -69 65 -77 10 -11 23 1 74 63 l63 76 68 0 c60 0 69 -2 69 -18 0 -10
-38 -63 -85 -118 -47 -54 -85 -106 -85 -114 0 -8 38 -61 85 -117 47 -57 85
-112 85 -123 0 -18 -7 -20 -68 -20 l-67 0 -59 75 c-32 41 -64 75 -70 75 -6 -1
-37 -34 -69 -75 l-59 -75 -69 0 c-59 0 -69 2 -69 18 0 9 41 66 90 127 50 60
90 112 90 115 0 4 -40 53 -90 111 -49 57 -90 112 -90 122 0 15 10 17 69 17
l69 0 53 -62z m641 -13 c70 -84 62 -85 140 11 l51 64 69 0 c59 0 68 -2 68 -18
0 -10 -38 -63 -85 -117 -46 -55 -84 -106 -85 -113 0 -7 38 -60 85 -117 47 -57
85 -112 85 -124 0 -19 -6 -21 -68 -21 l-67 0 -59 75 c-32 41 -63 75 -67 75 -5
0 -36 -34 -70 -75 l-62 -75 -68 0 c-59 0 -69 3 -69 18 0 9 41 66 90 126 50 59
90 112 90 117 0 4 -40 55 -90 113 -49 58 -90 112 -90 121 0 12 14 15 70 15
l69 0 63 -75z m-1492 -1035 l0 -50 89 0 c74 0 92 -3 115 -21 25 -20 26 -23 26
-135 0 -157 3 -154 -175 -154 l-135 0 0 205 0 205 40 0 40 0 0 -50z m1890 15
c0 -33 -2 -35 -35 -35 -33 0 -35 2 -35 35 0 33 2 35 35 35 33 0 35 -2 35 -35z
m130 0 c0 -33 -2 -35 -35 -35 -33 0 -35 2 -35 35 0 33 2 35 35 35 33 0 35 -2
35 -35z m-2660 -20 l0 -45 60 0 60 0 0 -40 0 -40 -60 0 -61 0 3 -77 3 -78 58
-3 57 -3 0 -34 0 -35 -69 0 c-53 0 -74 4 -92 19 -23 19 -24 24 -27 200 l-3
181 35 0 c36 0 36 0 36 -45z m-1140 -50 c34 -41 66 -73 71 -69 5 3 34 36 65
75 53 67 56 69 99 69 l45 0 -90 -121 -90 -120 0 -70 0 -69 -35 0 -35 0 0 70 0
71 -85 114 c-47 63 -85 117 -85 120 0 3 18 5 39 5 37 0 44 -5 101 -75z m3129
49 c12 -15 21 -37 21 -50 0 -21 -5 -24 -40 -24 -29 0 -40 4 -40 15 0 12 -19
15 -115 15 l-115 0 0 -40 0 -40 120 0 c125 0 171 -11 184 -45 3 -9 6 -43 6
-76 0 -50 -4 -64 -25 -84 -23 -24 -29 -25 -164 -25 -77 0 -147 3 -156 6 -19 7
-45 55 -45 82 0 28 75 31 83 2 5 -19 13 -20 116 -20 l111 0 0 39 0 39 -130 4
c-119 3 -131 5 -152 26 -20 19 -23 33 -23 93 0 105 7 109 195 109 149 0 149 0
169 -26z m1236 -34 c26 -33 53 -60 59 -60 6 0 33 27 59 60 46 57 51 60 93 60
24 0 44 -3 44 -7 0 -5 -32 -45 -70 -91 -39 -46 -70 -86 -70 -91 0 -4 32 -45
70 -90 39 -46 70 -87 70 -92 0 -5 -20 -9 -44 -9 -42 0 -46 3 -97 65 -29 36
-53 65 -54 65 -2 0 -27 -29 -56 -65 -51 -61 -56 -65 -96 -65 -24 0 -43 3 -43
8 0 4 31 45 70 92 38 47 70 87 70 90 0 3 -31 44 -70 90 -38 46 -70 88 -70 92
0 5 20 8 43 8 42 0 46 -3 92 -60z m-3774 -39 c28 -29 29 -32 29 -131 0 -94 -2
-103 -25 -125 -22 -23 -31 -25 -128 -25 -90 0 -108 3 -131 21 -25 20 -26 24
-26 128 0 148 12 160 158 161 90 0 95 -1 123 -29z m171 -88 l3 -118 80 0 80 0
3 118 3 117 34 0 35 0 0 -130 c0 -126 -1 -132 -25 -155 -23 -23 -31 -25 -130
-25 -99 0 -107 2 -130 25 -24 23 -25 29 -25 155 l0 130 35 0 34 0 3 -117z
m630 0 l3 -118 80 0 80 0 3 118 3 117 34 0 35 0 0 -130 c0 -126 -1 -132 -25
-155 -23 -23 -31 -25 -130 -25 -99 0 -107 2 -130 25 -24 23 -25 29 -25 155 l0
130 35 0 34 0 3 -117z m947 102 c36 -18 41 -32 41 -111 l0 -63 -117 -3 c-110
-3 -118 -4 -118 -23 0 -19 8 -20 118 -23 l117 -3 0 -34 0 -35 -129 0 c-115 0
-131 2 -155 21 -25 20 -26 24 -26 127 1 148 14 161 153 162 58 0 98 -5 116
-15z m181 -25 c0 -39 -1 -40 -35 -40 -34 0 -35 1 -35 40 0 39 1 40 35 40 34 0
35 -1 35 -40z m981 11 c29 -29 29 -30 29 -155 l0 -126 -129 0 c-115 0 -131 2
-155 21 -24 19 -26 26 -26 94 l0 74 118 3 c96 2 117 6 117 18 0 12 -21 16
-117 18 l-118 3 0 39 0 40 126 0 c125 0 126 0 155 -29z m169 -126 l0 -155 -35
0 -35 0 0 155 0 155 35 0 35 0 0 -155z m130 0 l0 -155 -35 0 -35 0 0 155 0
155 35 0 35 0 0 -155z m166 108 l43 -48 41 48 c36 41 46 47 81 47 21 0 39 -4
39 -9 0 -5 -25 -38 -55 -74 -30 -35 -55 -67 -55 -71 0 -4 25 -38 55 -75 30
-38 55 -71 55 -75 0 -3 -19 -6 -43 -6 -40 0 -46 4 -77 45 -19 25 -37 45 -41
45 -4 0 -24 -20 -45 -45 -32 -39 -41 -45 -75 -45 -22 0 -39 5 -39 11 0 6 19
34 43 62 23 29 48 59 55 68 11 14 4 26 -43 81 -30 36 -55 70 -55 77 0 6 16 11
37 11 31 0 43 -7 79 -47z m-1446 -228 c0 -33 -2 -35 -35 -35 -33 0 -35 2 -35
35 0 33 2 35 35 35 33 0 35 -2 35 -35z"/>
<path d="M4632 3008 l3 -43 125 0 125 0 3 43 3 42 -131 0 -131 0 3 -42z"/>
<path d="M4670 2030 l0 -80 80 0 80 0 0 80 0 80 -80 0 -80 0 0 -80z"/>
<path d="M3270 2030 l0 -80 80 0 80 0 0 80 0 80 -80 0 -80 0 0 -80z"/>
<path d="M5032 2088 c3 -21 9 -23 86 -26 82 -3 82 -3 82 23 0 25 -1 25 -86 25
-83 0 -85 -1 -82 -22z"/>
<path d="M6182 1983 l3 -28 80 0 c79 0 80 0 80 25 0 24 -2 25 -83 28 l-83 3 3
-28z"/>
</g>
</svg>
